<?xml version="1.0" encoding="UTF-8" standalone="no"?>
<!-- Created with Inkscape (http://www.inkscape.org/) -->

<svg
   width="210mm"
   height="297mm"
   viewBox="0 0 210 297"
   version="1.1"
   id="svg1"
   xml:space="preserve"
   inkscape:version="1.4.2 (f4327f4, 2025-05-13)"
   sodipodi:docname="icone do ultimo projeto do ano.svg"
   xmlns:inkscape="http://www.inkscape.org/namespaces/inkscape"
   xmlns:sodipodi="http://sodipodi.sourceforge.net/DTD/sodipodi-0.dtd"
   xmlns="http://www.w3.org/2000/svg"
   xmlns:svg="http://www.w3.org/2000/svg"><sodipodi:namedview
     id="namedview1"
     pagecolor="#ffffff"
     bordercolor="#000000"
     borderopacity="0.25"
     inkscape:showpageshadow="2"
     inkscape:pageopacity="0.0"
     inkscape:pagecheckerboard="0"
     inkscape:deskcolor="#d1d1d1"
     inkscape:document-units="mm"
     inkscape:zoom="2.8284271"
     inkscape:cx="729.38065"
     inkscape:cy="392.26749"
     inkscape:window-width="1280"
     inkscape:window-height="697"
     inkscape:window-x="-8"
     inkscape:window-y="-8"
     inkscape:window-maximized="1"
     inkscape:current-layer="layer1" /><defs
     id="defs1" /><g
     inkscape:label="Camada 1"
     inkscape:groupmode="layer"
     id="layer1"><path
       style="fill:#ffcd3d;stroke:#000000;stroke-width:0.2;stroke-linecap:square;stroke-miterlimit:0;opacity:1;fill-opacity:1"
       d="m 187.37461,140.90716 10.76523,-0.0331 0.0827,-37.95117 3.3073,0.11575 -0.0331,40.67969 -14.17174,0.0496 z"
       id="path5" /><ellipse
       style="opacity:1;fill:#ffc73e;fill-opacity:1;stroke:#000000;stroke-width:0.322019;stroke-linecap:square;stroke-miterlimit:0;stroke-dasharray:none;stroke-opacity:1"
       id="path32"
       cx="108.14674"
       cy="38.734959"
       rx="41.64325"
       ry="20.697613" /><ellipse
       style="opacity:1;fill:#e20000;fill-opacity:1;stroke:#000000;stroke-width:0.322019;stroke-linecap:square;stroke-miterlimit:0;stroke-dasharray:none;stroke-opacity:1"
       id="path12"
       cx="107.71431"
       cy="37.440578"
       rx="37.708622"
       ry="16.483124" /><ellipse
       style="opacity:1;fill:#ffc73e;fill-opacity:1;stroke:#000000;stroke-width:0.322019;stroke-linecap:square;stroke-miterlimit:0;stroke-dasharray:none;stroke-opacity:1"
       id="path10"
       cx="108.23293"
       cy="38.508091"
       rx="32.579006"
       ry="13.536572" /><rect
       style="opacity:1;fill:#ffca3d;fill-opacity:1;stroke:#000000;stroke-width:0.322019;stroke-linecap:square;stroke-miterlimit:0;stroke-dasharray:none;stroke-opacity:1"
       id="rect12"
       width="165.21872"
       height="33.406384"
       x="22.087566"
       y="36.875221" /><path
       style="fill:#ffcd3d;fill-opacity:1;stroke:#000000;stroke-width:0.322019;stroke-linecap:square;stroke-miterlimit:0;stroke-dasharray:none;stroke-opacity:1"
       d="M 22.084837,69.501081 21.752336,190.05109 H 187.33733 V 69.233191 Z"
       id="path1"
       sodipodi:nodetypes="ccccc" /><rect
       style="fill:#ffffff;fill-opacity:1;stroke:#000000;stroke-width:0.312765;stroke-linecap:square;stroke-miterlimit:0;stroke-dasharray:none"
       id="rect4-8"
       width="40.380695"
       height="83.035393"
       x="85.3377"
       y="78.724121" /><rect
       style="fill:#ffca3d;fill-opacity:1;stroke:#000000;stroke-width:0.322019;stroke-linecap:square;stroke-miterlimit:0;stroke-dasharray:none"
       id="rect3"
       width="3.3250182"
       height="13.083601"
       x="198.19077"
       y="102.33925" /><ellipse
       style="fill:#b90000;fill-opacity:1;stroke:#000000;stroke-width:0.322019;stroke-linecap:square;stroke-miterlimit:0;stroke-dasharray:none"
       id="path3"
       cx="199.76215"
       cy="99.912918"
       rx="4.3481312"
       ry="3.2657197" /><rect
       style="fill:#ffffff;fill-opacity:1;stroke:#000000;stroke-width:0.312765;stroke-linecap:square;stroke-miterlimit:0;stroke-dasharray:none"
       id="rect4"
       width="40.381779"
       height="82.195808"
       x="37.48793"
       y="78.812599" /><rect
       style="fill:#ffffff;fill-opacity:1;stroke:#000000;stroke-width:0.312765;stroke-linecap:square;stroke-miterlimit:0;stroke-dasharray:none"
       id="rect5"
       width="40.381622"
       height="82.318756"
       x="133.37846"
       y="78.723747" /><path
       style="opacity:1;mix-blend-mode:normal;fill:#a02c2c;fill-opacity:1;stroke:#000000;stroke-width:1.09468;stroke-linecap:square;stroke-miterlimit:0;stroke-dasharray:none;stroke-opacity:1"
       d="m 39.759999,115.05908 6.285042,-0.0323 0.09235,-0.0851 c 0,0 -0.136869,-0.98452 -0.01851,-1.47122 0.09201,-0.37815 0.32292,-0.73091 0.591528,-1.03753 0.260628,-0.2975 0.597673,-0.54803 0.961238,-0.74573 0.36175,-0.19674 0.76788,-0.33919 1.183056,-0.42151 0.409395,-0.0811 0.837874,-0.0845 1.257011,-0.0649 0.449133,0.021 0.898702,0.0856 1.330951,0.19455 0.461913,0.11641 1.33095,0.48634 1.33095,0.48634 l 1.40489,0.55119 1.40489,0.55121 1.663684,0.55118 1.626721,0.29182 1.257012,0.0649 0.295774,-0.0323 -2.329168,1.94539 -1.220034,0.94028 -1.183074,0.9727 -0.92426,0.77815 -1.515807,1.49147 -0.924276,1.13482 -1.035179,1.58873 -0.591527,1.03754 -0.591547,1.23208 -0.44365,1.32936 -0.55455,1.75086 -0.369711,1.55631 -0.258795,2.01024 -0.221833,1.97781 -0.07385,1.58873 0.03701,0.81059 2.18129,-0.0649 h 14.270728 l -0.03701,-3.17747 0.03701,-2.46417 0.03701,-1.65357 0.03701,-1.58875 0.221817,-1.84812 0.554566,-2.95052 0.702446,-2.36688 0.776382,-1.91297 1.441868,-2.75598 1.774601,-2.56144 1.626706,-2.07506 2.144303,-2.33448 2.081184,-2.14747 -2.081184,-2.58632 -3.438276,0.87543 -3.253429,0.19454 h -1.700663 l -2.144311,-0.12971 -1.404888,-0.19454 -1.737625,-0.35666 -1.183072,-0.2918 -1.922478,-0.48636 -1.515807,-0.25938 -1.146094,-0.19453 c 0,0 -1.970456,-0.11486 -2.661901,-0.0974 -0.691444,0.0176 -0.938246,0.0539 -1.478829,0.12971 -0.540581,0.0758 -1.295263,0.2124 -1.756112,0.34046 -0.460846,0.12803 -0.687883,0.22924 -1.016704,0.37286 -0.383122,0.16734 -0.736055,0.38343 -1.109117,0.5674 -0.146662,0.0723 -0.443652,0.21075 -0.443652,0.21075 v -1.3942 l -6.365315,-0.0324 z"
       id="path7"
       sodipodi:nodetypes="cccssssssccccccccccccccccccccccccccccccccccccccccccccccccczzzsscccc" /><path
       style="opacity:1;mix-blend-mode:normal;fill:#a02c2c;fill-opacity:1;stroke:#000000;stroke-width:1.09468;stroke-linecap:square;stroke-miterlimit:0;stroke-dasharray:none;stroke-opacity:1"
       d="m 87.618237,115.05908 6.285085,-0.0323 0.09235,-0.0851 c 0,0 -0.136868,-0.98452 -0.01851,-1.47122 0.092,-0.37815 0.322932,-0.73091 0.591537,-1.03753 0.260625,-0.2975 0.597681,-0.54803 0.961237,-0.74573 0.361759,-0.19674 0.767895,-0.33919 1.183056,-0.42151 0.409419,-0.0811 0.8379,-0.0845 1.257041,-0.0649 0.449135,0.021 0.898706,0.0856 1.33094,0.19455 0.461914,0.11641 1.330957,0.48634 1.330957,0.48634 l 1.40491,0.55119 1.40489,0.55121 1.6637,0.55118 1.62674,0.29182 1.25701,0.0649 0.29577,-0.0323 -2.32919,1.94539 -1.22003,0.94028 -1.18308,0.9727 -0.92428,0.77815 -1.5158,1.49147 -0.92429,1.13482 -1.035173,1.58873 -0.591537,1.03754 -0.591537,1.23208 -0.443651,1.32936 -0.554562,1.75086 -0.369719,1.55631 -0.258793,2.01024 -0.221835,1.97781 -0.07385,1.58873 0.03701,0.81059 2.181288,-0.0649 h 14.270789 l -0.037,-3.17747 0.037,-2.46417 0.037,-1.65357 0.037,-1.58875 0.22184,-1.84812 0.55458,-2.95052 0.70244,-2.36688 0.77638,-1.91297 1.44188,-2.75598 1.77461,-2.56144 1.62672,-2.07506 2.1443,-2.33448 2.0812,-2.14747 -2.0812,-2.58632 -3.43829,0.87543 -3.25345,0.19454 h -1.70066 l -2.14433,-0.12971 -1.40491,-0.19454 -1.73761,-0.35666 -1.18308,-0.2918 -1.92249,-0.48636 -1.51582,-0.25938 -1.14611,-0.19453 c 0,0 -1.97047,-0.11486 -2.661913,-0.0974 -0.691447,0.0176 -0.938247,0.0539 -1.478824,0.12971 -0.540577,0.0758 -1.295274,0.2124 -1.756122,0.34046 -0.460831,0.12803 -0.687868,0.22924 -1.016701,0.37286 -0.383127,0.16734 -0.736069,0.38343 -1.109123,0.5674 -0.146644,0.0723 -0.443653,0.21075 -0.443653,0.21075 v -1.3942 l -6.365354,-0.0324 z"
       id="path8"
       sodipodi:nodetypes="cccssssssccccccccccccccccccccccccccccccccccccccccccccccccczzzsscccc" /><path
       style="opacity:1;mix-blend-mode:normal;fill:#a02c2c;fill-opacity:1;stroke:#000000;stroke-width:1.09468;stroke-linecap:square;stroke-miterlimit:0;stroke-dasharray:none;stroke-opacity:1"
       d="m 135.28946,115.35622 6.28508,-0.0323 0.0923,-0.0851 c 0,0 -0.13688,-0.98452 -0.0185,-1.47121 0.092,-0.37816 0.32293,-0.73092 0.59154,-1.03753 0.26065,-0.29751 0.59768,-0.54804 0.96124,-0.74574 0.36175,-0.19674 0.76789,-0.33919 1.18305,-0.42151 0.40943,-0.0811 0.8379,-0.0845 1.25705,-0.0649 0.44913,0.021 0.8987,0.0856 1.33093,0.19455 0.46191,0.11641 1.33096,0.48634 1.33096,0.48634 l 1.40491,0.55119 1.40489,0.55121 1.6637,0.55118 1.62674,0.29182 1.25701,0.0649 0.29577,-0.0323 -2.32919,1.94539 -1.22004,0.94028 -1.18306,0.9727 -0.92429,0.77816 -1.51579,1.49146 -0.9243,1.13481 -1.03518,1.58874 -0.59154,1.03754 -0.59152,1.23209 -0.44365,1.32935 -0.55457,1.75086 -0.36972,1.55631 -0.25879,2.01023 -0.22183,1.97782 -0.0739,1.58873 0.0369,0.81059 2.18129,-0.0649 h 14.27079 l -0.0369,-3.17747 0.0369,-2.46417 0.0371,-1.65358 0.0371,-1.58874 0.22182,-1.84812 0.55457,-2.95052 0.70245,-2.36688 0.77638,-1.91297 1.44189,-2.75598 1.7746,-2.56144 1.62671,-2.07506 2.14431,-2.33448 2.08121,-2.14747 -2.08121,-2.58632 -3.43829,0.87543 -3.25345,0.19454 h -1.70066 l -2.14433,-0.12971 -1.40491,-0.19454 -1.73761,-0.35666 -1.18308,-0.2918 -1.92249,-0.48636 -1.51581,-0.25938 -1.14612,-0.19453 c 0,0 -1.97047,-0.11486 -2.66192,-0.0974 -0.69144,0.0177 -0.93825,0.0539 -1.47882,0.12971 -0.54057,0.0758 -1.29527,0.2124 -1.75612,0.34046 -0.46084,0.12803 -0.68788,0.22924 -1.01671,0.37286 -0.38312,0.16734 -0.73607,0.38343 -1.10912,0.56741 -0.14664,0.0723 -0.44365,0.21074 -0.44365,0.21074 v -1.3942 l -6.36535,-0.0324 z"
       id="path9"
       sodipodi:nodetypes="cccssssssccccccccccccccccccccccccccccccccccccccccccccccccczzzsscccc" /><rect
       style="opacity:1;fill:#ffb141;fill-opacity:1;stroke:#000000;stroke-width:0.322019;stroke-linecap:square;stroke-miterlimit:0;stroke-dasharray:none;stroke-opacity:1"
       id="rect13"
       width="156.33368"
       height="23.388212"
       x="26.414377"
       y="41.203934" /><path
       style="opacity:1;fill:#000000;fill-opacity:0.458015;stroke:#000000;stroke-width:0.322019;stroke-linecap:square;stroke-miterlimit:0;stroke-dasharray:none;stroke-opacity:1"
       d="m 198.1777,115.4473 -0.0532,25.48564 z"
       id="path14" /><path
       style="opacity:1;fill:#000000;fill-opacity:0.458015;stroke:#000000;stroke-width:0.322019;stroke-linecap:square;stroke-miterlimit:0;stroke-dasharray:none;stroke-opacity:1"
       d="m 187.37353,140.91511 10.81253,-0.0134 z"
       id="path15"
       sodipodi:nodetypes="ccc" /><path
       style="opacity:1;fill:#ffcd3d;fill-opacity:1;stroke:none;stroke-width:0;stroke-linecap:square;stroke-miterlimit:0;stroke-dasharray:none;stroke-opacity:1"
       d="m 198.35348,115.17476 0.004,0.72178 2.98377,-0.0525 0.001,-0.70442 z"
       id="path16"
       sodipodi:nodetypes="ccccc" /><path
       style="opacity:1;fill:#ffd70c;fill-opacity:1;stroke:#000000;stroke-width:0.322019;stroke-linecap:square;stroke-miterlimit:0;stroke-dasharray:none;stroke-opacity:1"
       d="m 61.193963,44.258301 -0.466667,3.140477 -0.311093,1.945009 -0.116675,2.324522 0.05535,3.491525 0.25575,4.592116 c 0,0 0.07886,1.560622 -0.466663,2.087326 -0.545518,0.526704 -2.33331,0.645176 -2.33331,0.645176 l -0.567221,0.06669 -5.01425,0.07398 c 0,0 -1.034773,0.03002 -1.496231,-0.06481 C 49.631521,62.333989 48.834647,61.881911 48.2445,61.374811 47.867763,61.051089 47.75761,60.68752 47.621878,60.321185 47.448209,59.852413 47.33869,58.910273 47.33869,58.910273 l -0.261242,-2.042665 -0.09153,-1.189911 6.080352,-0.02453 0.699993,3.453577 0.662249,-0.03507 -0.04004,-0.913697 -0.155548,-2.998157 v -5.08547 l 0.466663,-3.946946 0.544438,-1.859616 z"
       id="path17"
       sodipodi:nodetypes="cccccczcccssscccccccccccc" /><path
       style="opacity:1;fill:#ffd70c;fill-opacity:1;stroke:#000000;stroke-width:0.322019;stroke-linecap:square;stroke-miterlimit:0;stroke-dasharray:none;stroke-opacity:1"
       d="m 63.947684,62.637028 0.275006,-2.442047 0.54997,-3.488638 1.044937,-3.944845 0.934942,-3.434966 1.6774,-4.387634 0.192483,-0.603801 6.764605,0.0805 1.264913,5.528149 1.044949,3.16661 1.429924,5.501315 1.484917,3.703324 -0.769954,0.18785 h -4.839727 l -0.329985,-0.05367 -0.879955,-3.166611 -3.464791,-0.08051 -0.329986,3.35446 z"
       id="path23"
       sodipodi:nodetypes="ccccccccccccccccccc" /><path
       style="opacity:1;fill:#ffb141;fill-opacity:1;stroke:#000000;stroke-width:0.322019;stroke-linecap:square;stroke-miterlimit:0;stroke-dasharray:none;stroke-opacity:1"
       d="m 70.684863,56.029694 2.109333,0.02531 -1.150543,-6.629075 z"
       id="path24"
       sodipodi:nodetypes="cccc" /><path
       style="opacity:1;fill:#ffd70c;fill-opacity:1;stroke:#000000;stroke-width:0.322019;stroke-linecap:square;stroke-miterlimit:0;stroke-dasharray:none;stroke-opacity:1"
       d="m 88.26817,47.17968 1.979877,0.05367 0.164976,3.434968 5.279661,0.08051 -0.05499,-4.240036 -0.549969,-0.966085 -0.43997,-0.456207 c 0,0 -0.890359,-0.522422 -1.704883,-0.670892 -0.814542,-0.148468 -2.45649,-0.05837 -3.574795,-0.08051 -1.118287,-0.02213 -2.105834,-0.06236 -3.134809,0.08051 -1.028992,0.142868 -1.689451,0.27063 -2.254853,0.61722 -0.565403,0.346592 -0.753666,0.807889 -0.989938,1.234443 -0.309875,0.559365 -0.549971,1.717483 -0.549971,1.717483 l -0.05499,9.9292 v 1.395455 l 0.329967,1.449127 c 0,0 0.448645,0.718482 0.879955,0.99292 0.431292,0.274437 0.764857,0.441909 1.5949,0.617222 0.830026,0.17531 3.354794,0.24152 3.354794,0.24152 0,0 2.917146,-0.07414 3.73977,-0.134166 0.822623,-0.06002 1.209923,-0.134166 1.209923,-0.134166 0,0 0.556446,-0.126267 0.940219,-0.319548 0.410185,-0.206583 0.654402,-0.485923 0.819673,-0.646537 0.319913,-0.310891 0.329986,-0.778235 0.329986,-0.778235 l 0.164976,-2.817746 0.05499,-1.449128 -5.224687,-0.107351 -0.05499,3.247118 -2.639831,-0.02685 z"
       id="path25"
       sodipodi:nodetypes="ccccccczzzzscccczzczcssccccccc" /><path
       style="opacity:1;fill:#ffd70c;fill-opacity:1;stroke:#000000;stroke-width:0.322019;stroke-linecap:square;stroke-miterlimit:0;stroke-dasharray:none;stroke-opacity:1"
       d="m 100.35574,44.718942 0.22332,18.279982 4.46142,0.02358 0.22941,-8.809961 0.4205,0.113585 3.62979,8.694759 5.0322,0.01351 -3.84976,-9.218055 3.87724,-9.097297 -4.94968,0.05367 -3.82226,8.426403 -0.13757,-0.107351 -0.27497,-8.345895 z"
       id="path26"
       sodipodi:nodetypes="cccccccccccccc" /><path
       style="opacity:1;fill:#ffd70c;fill-opacity:1;stroke:#000000;stroke-width:0.322019;stroke-linecap:square;stroke-miterlimit:0;stroke-dasharray:none;stroke-opacity:1"
       d="m 118.69557,62.977817 -0.0779,-18.292563 c 0,0 6.36156,-0.474938 9.41104,-0.113867 0.67725,0.08018 1.18462,0.26035 1.83385,0.489912 0.6492,0.229566 1.25661,0.54412 1.57499,0.853906 0.31828,0.309783 0.63556,0.705558 0.63556,0.705558 l 0.0779,7.514371 c 0,0 -0.18393,1.089853 -0.70002,1.518055 -0.51609,0.4282 -0.86462,0.701014 -2.17774,0.948783 -1.31316,0.24777 -5.52769,0.02453 -5.52769,0.02453 l -0.30563,6.351297 z"
       id="path27"
       sodipodi:nodetypes="ccszzcczzccc" /><path
       style="opacity:1;fill:#ffb141;fill-opacity:1;stroke:#000000;stroke-width:0.322019;stroke-linecap:square;stroke-miterlimit:0;stroke-dasharray:none;stroke-opacity:1"
       d="m 123.5434,47.737957 0.22017,5.850177 2.80483,0.05367 c 0,0 0.50685,-2.358118 0.47933,-3.340898 -0.0265,-0.98278 0.49934,-2.082427 -0.50684,-2.536116 -1.00618,-0.453693 -2.99733,-0.02683 -2.99733,-0.02683 z"
       id="path28"
       sodipodi:nodetypes="ccczzcc" /><path
       style="opacity:1;fill:#ffd70c;fill-opacity:1;stroke:#000000;stroke-width:0.322019;stroke-linecap:square;stroke-miterlimit:0;stroke-dasharray:none;stroke-opacity:1"
       d="m 139.27814,44.040424 c 0,0 -1.50352,0.414421 -1.97987,0.617221 -0.47636,0.202799 -0.66523,0.239684 -0.93495,0.536715 -0.26972,0.297031 -0.32992,1.234439 -0.32992,1.234439 l -0.16497,1.395458 0.11014,6.869934 -0.27504,4.642571 c 0,0 0.18491,1.008073 0.71494,1.529635 0.53009,0.52156 1.98901,1.293572 2.52985,1.475962 0.54084,0.182388 3.29982,0.05367 3.29982,0.05367 l 4.6747,-0.08051 c 0,0 1.57379,-0.542241 2.08986,-0.939248 0.51606,-0.397008 0.87992,-1.368621 0.87992,-1.368621 l 0.11014,-3.569145 -0.16498,-7.916526 c 0,0 0.23413,-1.46203 0.0548,-2.012675 -0.17893,-0.550642 -0.47103,-0.864498 -0.87991,-1.261276 -0.29002,-0.281531 -0.72736,-0.584296 -1.09994,-0.778234 -0.3726,-0.19394 -1.04492,-0.402537 -1.04492,-0.402537 0,0 -2.30983,0.0041 -3.57479,0 -1.26495,-0.0041 -4.05364,0.01128 -4.05364,0.01128 z"
       id="path29"
       sodipodi:nodetypes="czzcccczzcczccczszczcc" /><path
       style="opacity:1;fill:#ffb141;fill-opacity:1;stroke:#000000;stroke-width:0.322019;stroke-linecap:square;stroke-miterlimit:0;stroke-dasharray:none;stroke-opacity:1"
       d="m 141.19912,46.745105 0.27503,-0.322029 c 0,0 2.19111,-0.09622 2.41397,-0.09321 0.3229,0.0045 0.5774,-0.146507 0.76305,0.291837 0.36296,0.857072 0.0721,1.750113 0.0739,2.625291 0.007,3.084245 0.42071,8.779208 -0.22617,9.252077 -0.2717,0.198552 -1.41712,0.186223 -1.41712,0.186223 l -1.66266,-0.05205 z"
       id="path30"
       sodipodi:nodetypes="ccssssccc" /><path
       style="opacity:1;fill:#ffd70c;fill-opacity:1;stroke:#000000;stroke-width:0.322019;stroke-linecap:square;stroke-miterlimit:0;stroke-dasharray:none;stroke-opacity:1"
       d="m 151.52726,47.272649 3.40982,0.04119 -0.0725,2.786834 0.0473,3.96653 0.0455,4.43648 -0.0647,3.929757 6.65095,-0.0048 -0.0405,-5.675213 0.0332,-9.385976 3.51977,-0.107362 0.0589,-3.093963 -12.067,-0.06289 -1.461,-0.01683 z"
       id="path31"
       sodipodi:nodetypes="cccccccccccccc" /><path
       style="opacity:1;fill:#ffc73e;fill-opacity:1;stroke:#000000;stroke-width:0.322019;stroke-linecap:square;stroke-miterlimit:0;stroke-dasharray:none;stroke-opacity:1"
       d="m 21.025956,50.842489 0.288907,0.158732 0.514839,0.180476 1.344992,0.193756 4.85454,-0.570318 2.580921,-0.600589 2.982009,-0.83039 c 0,0 3.220451,-0.950379 4.714781,-1.585985 1.751586,-0.745029 4.928252,-2.587849 4.928252,-2.587849 l 3.693079,-2.630514 2.672275,-2.173329 c 0,0 1.036035,-1.177999 1.278705,-1.830128 0.103667,-0.278583 0.07786,-0.584301 0.0625,-0.854155 -0.01537,-0.269857 0.01659,-0.571406 -0.143433,-0.758948 -0.160051,-0.187521 -0.647031,-0.321936 -0.647031,-0.321936 l -0.876917,-0.90095 -0.957008,-1.012335 0.05898,-1.793616 -0.680749,-2.590608 -1.024615,-0.760019 -0.798611,-1.398199 -0.729037,-2.239326 -0.860859,-2.465759 -0.714043,-2.911005 -1.05732,-3.921804 -0.825692,-0.339343 -1.901562,0.733845 0.473484,2.576909 0.09549,2.585373 -3.549445,-3.070736 -0.805469,1.261343 -1.175521,5.652498 -0.537076,3.235723 -10.06805,-5.938827 -0.774426,9.953738 -9.127966,-4.264707 -1.626305,0.04866 0.705768,4.515391 -4.7658042,-2.567879 -2.2260483,0.268499 3.1906663,3.178175 6.2711902,7.588352 0.736818,1.081498 0.151567,1.076262 1.707362,1.564404 0.993714,0.60167 1.010077,2.182559 z"
       id="path33"
       sodipodi:nodetypes="cccccccscccsszcccccccccccccccccccccccccccccccccc" /><path
       style="opacity:1;fill:#ffc73e;fill-opacity:1;stroke:#000000;stroke-width:0.322019;stroke-linecap:square;stroke-miterlimit:0;stroke-dasharray:none;stroke-opacity:1"
       d="m 6.4310714,31.284571 3.3562875,3.278457 3.6513601,2.245705 5.499758,2.736468 4.291668,1.634949 1.069048,0.388941 0.572698,-0.358447 0.192289,-2.906852 0.245461,-4.131448 0.447292,-3.995281 0.397538,-3.501744 5.214364,3.219995 5.988393,3.444269 2.792864,1.13941 1.277706,-0.937013 0.782344,-2.577519 0.888581,-2.631895 1.237772,-4.584942 -1.817726,-7.070329 -0.784156,-0.425915 -1.886116,0.813016 0.548308,4.898669 -2.03898,8.121236 -1.106769,0.914837 -7.572151,-4.375276 -5.310463,-2.963982 -1.360782,13.835148 -6.979059,-2.5569 -7.3884239,-3.859046 z"
       id="path34"
       sodipodi:nodetypes="cccccccccccccccccccccccccccccc" /><path
       style="opacity:1;fill:#882700;fill-opacity:1;stroke:#000000;stroke-width:0.322019;stroke-linecap:square;stroke-miterlimit:0;stroke-dasharray:none"
       d="m 37.259057,31.035571 -2.169114,-1.30521 1.571669,-7.920036 2.994088,3.227856 -1.277828,5.056963 z"
       id="path2"
       sodipodi:nodetypes="cccccc" /><path
       style="opacity:1;fill:#882700;fill-opacity:1;stroke:#000000;stroke-width:0.322019;stroke-linecap:square;stroke-miterlimit:0;stroke-dasharray:none"
       d="m 16.79399,35.216512 6.22601,2.266764 0.285256,-3.25378 -8.219239,-3.499797 z"
       id="path4"
       sodipodi:nodetypes="ccccc" /><ellipse
       style="opacity:1;fill:#ffc73e;stroke:#000000;stroke-width:0.322346;stroke-linecap:square;stroke-miterlimit:0;stroke-dasharray:none"
       id="path6"
       cx="24.998966"
       cy="43.472446"
       rx="4.6539721"
       ry="4.2754312"
       transform="matrix(0.99168509,-0.12868828,0.19150814,0.98149103,0,0)" /><path
       style="opacity:1;fill:#ff2b3e;fill-opacity:1;stroke:#000000;stroke-width:0.322019;stroke-linecap:square;stroke-miterlimit:0;stroke-dasharray:none"
       d="m 30.845629,36.887106 0.541501,0.446356 1.157496,-0.207607 -0.291542,-1.282438 c 0,0 1.847259,0.450673 2.396199,0.636203 0.548936,0.185527 0.728532,0.200969 0.944404,0.394075 0.215877,0.193092 0.297711,0.678905 0.297711,0.678905 l -0.714297,0.150102 0.271766,0.969284 0.80786,-0.305742 c 0,0 0.587802,0.95294 0.496376,1.485471 -0.09142,0.532525 -1.067397,1.516187 -1.067397,1.516187 l -0.822186,0.02065 -0.04505,-0.65429 -1.212811,0.559207 0.130391,1.303352 c 0,0 -1.182147,-0.1136 -1.755672,-0.317501 -0.57352,-0.203908 -1.582877,-0.913954 -1.582877,-0.913954 l 0.632373,-0.569988 -0.346871,-0.93084 -1.236008,0.01694 c 0,0 -0.0714,-0.998351 0.159161,-1.513136 0.230587,-0.51478 1.239462,-1.481099 1.239462,-1.481099 z"
       id="path11"
       sodipodi:nodetypes="cccczzcccczccccczcccczc" /><path
       style="opacity:1;fill:#ff2b3e;fill-opacity:1;stroke:#000000;stroke-width:0.322019;stroke-linecap:square;stroke-miterlimit:0;stroke-dasharray:none"
       d="m 44.532825,28.795907 c -0.341752,0.300819 -0.587843,0.719279 -0.563559,1.453192 0.0243,0.733917 0.824773,2.011069 1.293012,2.7344 0.468247,0.723335 0.891045,1.511178 1.368019,1.659177 0.10172,0.03157 0.220642,0.02795 0.295122,0.03233 0.274702,0.01626 0.356806,-0.104041 0.500038,-0.186348 0.182064,-0.104585 0.281736,-0.265669 0.513309,-0.513101 0.231596,-0.24743 0.428364,-0.479785 0.443792,-0.869391 0.01537,-0.389606 -0.339153,-1.325906 -0.339153,-1.325906 l -0.347955,-1.446525 -0.990333,-0.734027 -0.4413,-0.764681 c 0,0 -0.409635,-0.393423 -0.751814,-0.409817 -0.342212,-0.01638 -0.637414,0.06973 -0.979152,0.370606 z"
       id="path13"
       sodipodi:nodetypes="zzzssszzcccczzz" /><path
       style="opacity:1;fill:#ff2b3e;fill-opacity:1;stroke:#000000;stroke-width:0.322019;stroke-linecap:square;stroke-miterlimit:0;stroke-dasharray:none"
       d="m 16.818536,43.351638 c 0,0 -0.837082,-2.111533 -0.479695,-2.58879 0.20573,-0.274617 0.227006,-0.339955 0.31898,-0.339817 0.06785,1.14e-4 0.168136,0.03527 0.394287,0.04685 0.532684,0.0273 1.222435,0.545761 1.865881,1.066902 0.643445,0.521143 1.483976,1.499632 1.794735,2.161921 0.310755,0.662288 0.464938,1.065235 0.36136,1.627447 -0.06896,0.374342 -0.353972,0.883693 -0.807213,0.965848 -0.453247,0.08213 -0.575939,-0.136602 -0.865708,-0.332708 -0.651983,-0.441306 -1.101838,-1.010727 -1.614173,-1.535903 -0.340349,-0.348859 -0.968603,-1.071723 -0.968603,-1.071723 z"
       id="path18"
       sodipodi:nodetypes="cssszzszssc" /><path
       style="opacity:1;fill:#ffc73e;fill-opacity:1;stroke:#000000;stroke-width:0.322019;stroke-linecap:square;stroke-miterlimit:0;stroke-dasharray:none"
       d="m 16.573218,40.47326 c 0.196434,-0.106164 0.414217,-0.04535 0.778154,0.05187 0.36394,0.09732 0.695937,0.35643 1.167818,0.684967 0.471884,0.328536 1.000728,0.850849 1.406752,1.337477 0.389835,0.467236 0.970387,1.492608 0.970387,1.492608 0,0 0.171976,0.467958 0.199934,0.709551 0.03528,0.305446 -0.0083,0.610361 -0.12601,0.904463 -0.0567,0.141621 -0.156421,0.288395 -0.274133,0.400624 -0.117682,0.112233 -0.406393,0.26609 -0.406393,0.26609 0,0 0.582789,0.44656 0.976339,0.512598 0.39355,0.06604 1.200428,-0.135385 1.200428,-0.135385 l -0.328758,-1.235924 c 0,0 -0.24098,-1.616381 -0.493429,-2.229312 -0.252388,-0.612934 -0.398659,-0.966562 -0.895626,-1.446497 -0.496968,-0.479933 -1.479448,-1.072798 -2.125868,-1.315553 -0.646423,-0.242753 -0.874668,-0.26675 -1.229006,-0.312014 -0.354344,-0.04526 -0.767481,-0.07436 -1.018412,0.01665 -0.250928,0.09095 -0.498382,0.303603 -0.557057,0.587599 -0.05867,0.28399 0.447889,0.955613 0.447889,0.955613 0,0 -0.177002,-0.98376 0.307005,-1.245349 z"
       id="path19"
       sodipodi:nodetypes="szzscsszczcczzsssscs" /><path
       style="opacity:1;fill:#ffc73e;fill-opacity:1;stroke:#000000;stroke-width:0.322019;stroke-linecap:square;stroke-miterlimit:0;stroke-dasharray:none"
       d="m 46.113003,28.687788 -0.450733,-0.241396 -0.455304,-5.28e-4 -0.420562,0.124188 -0.638341,0.592287 -0.19482,1.065709 0.411936,1.222019 0.754148,1.313845 0.583879,0.928269 c 0,0 0.371819,0.503819 0.525824,0.656991 0.153978,0.153158 0.203451,0.22442 0.348816,0.280543 0.120859,0.04667 0.240151,0.04265 0.467044,0.03693 0.146504,-0.0038 0.271517,-0.09389 0.382962,-0.164336 0.119062,-0.07528 0.291816,-0.267618 0.291816,-0.267618 l 0.387046,-0.445413 0.254226,-0.50244 c 0,0 0.01795,0.846631 -0.09137,1.276576 -0.05806,0.228418 -0.126813,0.51269 -0.269426,0.686071 -0.142595,0.173392 -0.159371,0.302231 -0.463689,0.375891 -0.304326,0.07365 -0.800231,-0.02407 -1.170788,-0.178136 -0.37056,-0.15407 -0.619639,-0.433511 -0.909221,-0.743064 -0.289583,-0.309556 -0.559347,-0.75892 -0.776049,-1.11911 -0.216711,-0.360188 -0.532627,-1.035892 -0.532627,-1.035892 0,0 -0.311187,-0.748794 -0.448258,-1.132943 -0.137077,-0.384144 -0.333759,-0.762803 -0.373118,-1.171393 -0.03937,-0.408588 -0.06463,-0.936883 0.147884,-1.253355 0.212441,-0.31647 0.443391,-0.436938 0.83655,-0.582134 0.393158,-0.145215 1.019397,-0.32271 1.450442,-0.188221 0.431051,0.134478 0.701282,0.841797 0.701282,0.841797 z"
       id="path20"
       sodipodi:nodetypes="cccccccccsssscccszzzzzczzzzzcc" /><path
       style="opacity:1;fill:#ffc73e;fill-opacity:1;stroke:#000000;stroke-width:0.322019;stroke-linecap:square;stroke-miterlimit:0;stroke-dasharray:none"
       d="m 20.204265,46.930699 c 0,0 1.174826,1.004783 2.228395,1.090893 1.289451,0.105391 2.228974,-0.140834 3.438036,-0.344668 1.327885,-0.223949 4.342466,-0.949114 4.342466,-0.949114 0,0 3.344201,-0.882342 4.908895,-1.489407 2.036417,-0.790083 5.767483,-2.777936 5.767483,-2.777936 0,0 2.966532,-1.690524 4.270588,-2.664861 1.21617,-0.908673 2.329209,-1.894229 3.281686,-2.942442 0.328306,-0.36131 0.828644,-1.142578 0.828644,-1.142578 l 0.864899,0.910921 c 0,0 0.610141,0.271926 0.66285,0.331776 0.111971,0.127098 0.123042,0.416166 0.143973,0.736247 0.01894,0.29009 0.02942,0.603644 -0.04071,0.870901 -0.03661,0.139452 -0.02793,0.118366 -0.24611,0.426538 -0.218193,0.308147 -0.640997,0.967663 -1.060434,1.417069 -0.132015,0.141457 -0.369156,0.304774 -0.573225,0.474227 -0.444307,0.368942 -0.892716,0.734089 -0.892716,0.734089 l -2.169409,1.661786 -2.973766,2.070184 -4.619963,2.404955 -3.275065,1.146292 c 0,0 -1.760473,0.550002 -2.655766,0.796357 -1.449565,0.398882 -2.894654,0.825398 -4.393212,1.102681 -1.213504,0.22454 -3.695167,0.449047 -3.695167,0.449047 0,0 -0.762768,0.141667 -1.142151,0.120134 -0.368888,-0.02097 -0.946751,-0.08518 -1.384108,-0.199769 -0.476521,-0.124886 -0.797899,-0.29999 -0.797899,-0.29999 l -0.592724,-2.355814 -0.761088,-1.682274 z"
       id="path21"
       sodipodi:nodetypes="csscscssccssszsscccccsscsscccc" /><path
       style="opacity:1;fill:#ffc72a;fill-opacity:1;stroke:#000000;stroke-width:0.322019;stroke-linecap:square;stroke-miterlimit:0;stroke-dasharray:none"
       d="m 49.287615,35.727415 c 0,0 0.104734,0.09902 0.287778,0.305039 0.09106,0.102505 0.280646,0.211266 0.279376,0.418922 -0.004,0.625028 -1.303291,1.75901 -2.137841,2.525351 -0.834551,0.766337 -1.49724,1.141407 -2.760147,2.022369 -1.262907,0.88096 -3.412293,2.435596 -4.861642,3.228646 -1.449347,0.793053 -1.965396,0.963465 -3.654409,1.631042 -1.689013,0.667577 -4.44112,1.766891 -6.538603,2.269148 -2.097481,0.502254 -4.370302,0.865004 -5.885716,0.82462 -1.515401,-0.0404 -2.361363,-0.326334 -3.009677,-0.603895 -0.648315,-0.277562 -0.988809,-0.744372 -0.988809,-0.744372 l -0.332983,-0.773518 0.537526,0.113066 1.164288,0.807493 0.934317,0.288139 1.666992,-0.03368 3.821338,-0.722614 2.409783,-0.561864 1.322818,-0.369007 1.854345,-0.504485 1.750482,-0.613976 2.745727,-1.225294 2.093012,-1.072751 2.541085,-1.419741 1.863732,-1.174189 1.638128,-1.212976 1.073931,-0.915286 1.413226,-1.431027 z"
       id="path22"
       sodipodi:nodetypes="csszzzzzzzccccccccccccccccccc" /><path
       style="opacity:1;fill:#ffbf2a;fill-opacity:1;stroke:#000000;stroke-width:0.322019;stroke-linecap:square;stroke-miterlimit:0;stroke-dasharray:none"
       d="m 35.231427,169.98607 138.224023,0.19644 V 185.5055 L 35.148577,185.563 Z"
       id="path35"
       sodipodi:nodetypes="ccccc" /></g></svg>
